<svg xmlns="http://www.w3.org/2000/svg" width="60" height="60" viewBox="0 0 60 60">
  <g id="arrow-up-circle_1" data-name="arrow-up-circle 1" transform="translate(-930 -3219.999)">
    <path id="Vector" d="M960,3280a30,30,0,1,1,11.48-2.284A29.85,29.85,0,0,1,960,3280Zm0-56.25a26.249,26.249,0,1,0,18.562,7.689A26.078,26.078,0,0,0,960,3223.75Zm0,41.25a1.864,1.864,0,0,1-1.327-.55,1.888,1.888,0,0,1-.549-1.326V3241.4l-8.047,8.052a1.877,1.877,0,1,1-2.655-2.655l11.25-11.25a1.875,1.875,0,0,1,2.655,0l11.25,11.25a1.877,1.877,0,0,1-2.655,2.655l-8.048-8.052v21.723A1.876,1.876,0,0,1,960,3265Z"/>
  </g>
</svg>
